<svg width="74" height="70" viewBox="0 0 74 70" fill="none" xmlns="http://www.w3.org/2000/svg">
<ellipse cx="37" cy="35" rx="37" ry="35" fill="white"/>
<path d="M36.9677 60C20.605 60 10 48.135 10 35.7726V34.2273C10 21.6553 20.605 10 36.9677 10C53.3304 10 64 21.6553 64 34.2273V35.7726C64 48.0954 53.395 60 36.9677 60ZM55.2667 34.3714C55.2667 25.3614 48.7686 17.3468 36.9677 17.3468C25.1668 17.3468 18.7726 25.3745 18.7726 34.3714V35.4844C18.7726 44.4945 25.2707 52.6659 36.9677 52.6659C48.6641 52.6659 55.2667 44.4945 55.2667 35.4844V34.3714Z" fill="#3499CD"/>
<path d="M38.0218 27.1793L30.0837 39.5676C29.0794 41.1347 29.5257 43.2265 31.0816 44.2385L31.0929 44.2456C32.6481 45.2575 34.724 44.8078 35.7283 43.24L43.6665 30.852C44.6708 29.2843 44.2244 27.193 42.6685 26.1808L42.6573 26.1737C41.1021 25.1615 39.0261 25.6117 38.0218 27.1793Z" fill="#010101"/>
</svg>
