<svg width="173" height="46" viewBox="0 0 173 46" fill="none" xmlns="http://www.w3.org/2000/svg">
<path d="M22.6963 3H139.497C148.709 3 152.568 3.0402 155.59 4.07227C161.446 6.07225 166.046 10.6722 168.046 16.5283C169.078 19.5506 169.119 23.41 169.119 32.6221C169.119 36.3772 169.078 37.5081 168.797 38.332C168.197 40.0899 166.815 41.471 165.058 42.0713C164.234 42.3526 163.103 42.3936 159.348 42.3936H22.6963C11.8183 42.3934 3 33.5743 3 22.6963C3.00015 11.8184 11.8184 3.00014 22.6963 3Z" fill="#4684FF"/>
<path d="M22.6963 3H139.497C148.709 3 152.568 3.0402 155.59 4.07227C161.446 6.07225 166.046 10.6722 168.046 16.5283C169.078 19.5506 169.119 23.41 169.119 32.6221C169.119 36.3772 169.078 37.5081 168.797 38.332C168.197 40.0899 166.815 41.471 165.058 42.0713C164.234 42.3526 163.103 42.3936 159.348 42.3936H22.6963C11.8183 42.3934 3 33.5743 3 22.6963C3.00015 11.8184 11.8184 3.00014 22.6963 3Z" stroke="white" stroke-width="6"/>
<path d="M21.3672 28.851L18.0923 16.7026H20.0623L22.2932 26.1401H22.4027L24.9368 16.7026H26.6963L29.2472 26.1401H29.3566L31.5792 16.7026H33.5408L30.2659 28.851H28.4811L25.8712 19.7755H25.7618L23.152 28.851H21.3672Z" fill="white"/>
<path d="M35.3512 28.851V16.1217H37.1781V21.0888H37.3212C37.5457 20.6005 37.8768 20.2189 38.3146 19.9438C38.7524 19.6688 39.3052 19.5313 39.9731 19.5313C40.6522 19.5313 41.2275 19.6632 41.699 19.927C42.1704 20.1908 42.5296 20.5781 42.7766 21.0888C43.0235 21.5939 43.147 22.2085 43.147 22.9325V28.851H41.3117V23.3619C41.3117 22.5986 41.1518 22.0317 40.8318 21.6613C40.5175 21.2852 40.0236 21.0972 39.3501 21.0972C38.9067 21.0972 38.5223 21.1954 38.1967 21.3919C37.8712 21.5827 37.6187 21.8577 37.4391 22.2169C37.2651 22.5705 37.1781 22.9943 37.1781 23.4882V28.851H35.3512Z" fill="white"/>
<path d="M47.8535 29.0025C47.2754 29.0025 46.7562 28.8931 46.296 28.6742C45.8414 28.4497 45.4822 28.1326 45.2184 27.7228C44.9546 27.3131 44.8227 26.8333 44.8227 26.2832V26.2664C44.8227 25.7164 44.9546 25.2477 45.2184 24.8604C45.4878 24.4732 45.8751 24.1701 46.3802 23.9512C46.8909 23.7267 47.5083 23.592 48.2323 23.5471L51.6083 23.3451V24.6331L48.4849 24.8352C47.8563 24.8745 47.3932 25.0092 47.0958 25.2393C46.7983 25.4638 46.6496 25.7809 46.6496 26.1906V26.2075C46.6496 26.6228 46.8095 26.9511 47.1295 27.1925C47.4494 27.4282 47.8535 27.546 48.3418 27.546C48.7964 27.546 49.2005 27.4562 49.5541 27.2766C49.9133 27.0914 50.1939 26.8445 50.396 26.5358C50.598 26.2215 50.699 25.8679 50.699 25.475V22.5958C50.699 22.0906 50.5419 21.7062 50.2276 21.4424C49.9189 21.173 49.4587 21.0383 48.8469 21.0383C48.3362 21.0383 47.918 21.1281 47.5925 21.3077C47.2726 21.4873 47.0593 21.7399 46.9527 22.0654L46.9358 22.0906H45.1763L45.1847 22.0317C45.2577 21.5266 45.4569 21.0888 45.7824 20.7184C46.1136 20.3423 46.5458 20.0505 47.0789 19.8428C47.6177 19.6352 48.2323 19.5313 48.9227 19.5313C49.6916 19.5313 50.3426 19.6548 50.8758 19.9018C51.4146 20.1431 51.8215 20.4939 52.0966 20.9541C52.3772 21.4087 52.5175 21.9559 52.5175 22.5958V28.851H50.699V27.5545H50.5643C50.3847 27.8632 50.1602 28.1269 49.8908 28.3458C49.6214 28.5591 49.3155 28.7219 48.9732 28.8341C48.6308 28.9464 48.2576 29.0025 47.8535 29.0025Z" fill="white"/>
<path d="M58.2005 28.9099C57.2015 28.9099 56.4775 28.7191 56.0285 28.3374C55.5851 27.9501 55.3634 27.3187 55.3634 26.4432V21.1477H53.9322V19.7081H55.3634V17.4014H57.2324V19.7081H59.194V21.1477H57.2324V25.997C57.2324 26.4909 57.3306 26.8473 57.527 27.0662C57.7235 27.2794 58.049 27.3861 58.5036 27.3861C58.6383 27.3861 58.7534 27.3833 58.8488 27.3777C58.9498 27.3721 59.0649 27.3636 59.194 27.3524V28.8173C59.048 28.8397 58.8909 28.8594 58.7225 28.8762C58.5541 28.8987 58.3801 28.9099 58.2005 28.9099Z" fill="white"/>
<path d="M65.3656 28.851V19.7081H67.2009V28.851H65.3656ZM66.2917 18.0749C65.9774 18.0749 65.708 17.9626 65.4835 17.7381C65.259 17.5136 65.1468 17.2442 65.1468 16.9299C65.1468 16.6156 65.259 16.349 65.4835 16.1301C65.708 15.9056 65.9774 15.7934 66.2917 15.7934C66.606 15.7934 66.8754 15.9056 67.0999 16.1301C67.3244 16.349 67.4367 16.6156 67.4367 16.9299C67.4367 17.2442 67.3244 17.5136 67.0999 17.7381C66.8754 17.9626 66.606 18.0749 66.2917 18.0749Z" fill="white"/>
<path d="M72.8335 29.0278C72.0982 29.0278 71.4584 28.9211 70.914 28.7078C70.3696 28.489 69.9374 28.1887 69.6175 27.807C69.2976 27.4198 69.1096 26.9708 69.0534 26.46V26.4432H70.8887V26.46C71.0066 26.8024 71.2311 27.0802 71.5622 27.2935C71.8934 27.5068 72.3312 27.6134 72.8756 27.6134C73.2516 27.6134 73.5799 27.5601 73.8606 27.4534C74.1468 27.3468 74.3713 27.1981 74.5341 27.0072C74.6968 26.8164 74.7782 26.5975 74.7782 26.3506V26.3337C74.7782 26.0475 74.6632 25.8062 74.4331 25.6097C74.2029 25.4133 73.8241 25.2533 73.2965 25.1298L71.8316 24.7931C71.2592 24.664 70.7849 24.4872 70.4089 24.2627C70.0328 24.0382 69.755 23.7632 69.5754 23.4377C69.3958 23.1065 69.306 22.7193 69.306 22.2759V22.2674C69.306 21.7342 69.4575 21.2628 69.7606 20.8531C70.0637 20.4378 70.4818 20.115 71.015 19.8849C71.5538 19.6492 72.1684 19.5313 72.8587 19.5313C73.5547 19.5313 74.1608 19.6408 74.6772 19.8597C75.1992 20.0729 75.6117 20.3704 75.9148 20.7521C76.2178 21.1281 76.3974 21.5659 76.4536 22.0654V22.0738H74.7025V22.057C74.6183 21.7371 74.4162 21.4705 74.0963 21.2572C73.782 21.0439 73.3667 20.9373 72.8503 20.9373C72.5192 20.9373 72.2245 20.9906 71.9663 21.0972C71.7082 21.1983 71.5033 21.3414 71.3518 21.5266C71.2058 21.7062 71.1329 21.9195 71.1329 22.1664V22.1833C71.1329 22.3741 71.1806 22.5425 71.276 22.6884C71.377 22.8287 71.5342 22.955 71.7475 23.0672C71.9607 23.1739 72.2357 23.2693 72.5725 23.3535L74.029 23.6818C74.9045 23.8895 75.5556 24.1897 75.9821 24.5826C76.4143 24.9755 76.6304 25.5031 76.6304 26.1654V26.1822C76.6304 26.7435 76.4648 27.2402 76.1337 27.6723C75.8025 28.0989 75.3507 28.4328 74.7782 28.6742C74.2114 28.9099 73.5631 29.0278 72.8335 29.0278Z" fill="white"/>
<path d="M85.8581 29.1456C85.2968 29.1456 84.7945 29.0642 84.3511 28.9015C83.9077 28.7443 83.5317 28.517 83.223 28.2196C82.9143 27.9221 82.673 27.5713 82.499 27.1672C82.325 26.7631 82.2239 26.3197 82.1959 25.837L82.1875 25.736H84.0564V25.8033C84.0845 26.112 84.1687 26.3927 84.309 26.6452C84.4493 26.8922 84.6458 27.0886 84.8983 27.2345C85.1565 27.3805 85.4736 27.4534 85.8497 27.4534C86.4726 27.4534 86.9469 27.2738 87.2724 26.9146C87.598 26.5498 87.7607 26.0194 87.7607 25.3235V16.7026H89.655V25.3403C89.655 26.1373 89.5034 26.8192 89.2003 27.3861C88.9029 27.953 88.4707 28.3879 87.9038 28.691C87.3426 28.9941 86.6607 29.1456 85.8581 29.1456Z" fill="white"/>
<path d="M95.9021 29.0278C95.0097 29.0278 94.2436 28.8369 93.6037 28.4553C92.9639 28.068 92.47 27.5208 92.122 26.8136C91.7797 26.1064 91.6085 25.2702 91.6085 24.3048V24.2964C91.6085 23.3422 91.7797 22.5088 92.122 21.796C92.47 21.0832 92.9583 20.5276 93.5869 20.1291C94.2211 19.7306 94.962 19.5313 95.8095 19.5313C96.6626 19.5313 97.395 19.7222 98.0068 20.1038C98.6242 20.4855 99.0984 21.0215 99.4296 21.7118C99.7607 22.3965 99.9263 23.1991 99.9263 24.1196V24.7594H92.5345V23.4545H99.017L98.1415 24.6668V23.9344C98.1415 23.2833 98.0405 22.7445 97.8384 22.318C97.642 21.8858 97.3698 21.5631 97.0218 21.3498C96.6738 21.1365 96.2725 21.0299 95.8179 21.0299C95.3633 21.0299 94.9564 21.1421 94.5972 21.3666C94.2436 21.5855 93.9629 21.911 93.7553 22.3432C93.5532 22.7754 93.4522 23.3058 93.4522 23.9344V24.6668C93.4522 25.2674 93.5532 25.7809 93.7553 26.2075C93.9573 26.634 94.2436 26.9595 94.614 27.184C94.99 27.4085 95.4334 27.5208 95.9442 27.5208C96.337 27.5208 96.6738 27.4675 96.9544 27.3608C97.2407 27.2486 97.4736 27.1111 97.6532 26.9483C97.8384 26.7855 97.9647 26.6256 98.032 26.4684L98.0657 26.4011H99.8337L99.8168 26.4769C99.7383 26.7799 99.6007 27.083 99.4043 27.3861C99.2079 27.6836 98.9469 27.9558 98.6214 28.2027C98.3014 28.4497 97.9142 28.6489 97.4596 28.8005C97.0106 28.952 96.4914 29.0278 95.9021 29.0278Z" fill="white"/>
<path d="M105.205 28.9099C104.206 28.9099 103.482 28.7191 103.033 28.3374C102.59 27.9501 102.368 27.3187 102.368 26.4432V21.1477H100.937V19.7081H102.368V17.4014H104.237V19.7081H106.199V21.1477H104.237V25.997C104.237 26.4909 104.335 26.8473 104.532 27.0662C104.728 27.2794 105.054 27.3861 105.508 27.3861C105.643 27.3861 105.758 27.3833 105.853 27.3777C105.954 27.3721 106.07 27.3636 106.199 27.3524V28.8173C106.053 28.8397 105.896 28.8594 105.727 28.8762C105.559 28.8987 105.385 28.9099 105.205 28.9099Z" fill="white"/>
<path d="M107.992 31.8986V19.7081H109.819V21.1477H109.962C110.136 20.811 110.361 20.5247 110.636 20.289C110.916 20.0533 111.236 19.8709 111.595 19.7418C111.955 19.6127 112.348 19.5482 112.774 19.5482C113.543 19.5482 114.211 19.7446 114.778 20.1375C115.345 20.5247 115.782 21.072 116.091 21.7792C116.405 22.4807 116.563 23.3114 116.563 24.2711V24.288C116.563 25.2533 116.408 26.0896 116.1 26.7968C115.791 27.4983 115.353 28.0428 114.786 28.43C114.219 28.8117 113.549 29.0025 112.774 29.0025C112.353 29.0025 111.96 28.938 111.595 28.8089C111.231 28.6742 110.908 28.489 110.627 28.2532C110.347 28.0175 110.125 27.7341 109.962 27.4029H109.819V31.8986H107.992ZM112.252 27.4366C112.763 27.4366 113.201 27.3103 113.565 27.0578C113.93 26.8052 114.208 26.4432 114.399 25.9717C114.595 25.5003 114.694 24.939 114.694 24.288V24.2711C114.694 23.6145 114.595 23.0504 114.399 22.5789C114.208 22.1075 113.93 21.7455 113.565 21.4929C113.201 21.2403 112.763 21.1141 112.252 21.1141C111.747 21.1141 111.309 21.2432 110.939 21.5013C110.568 21.7539 110.285 22.1159 110.088 22.5874C109.892 23.0532 109.794 23.6145 109.794 24.2711V24.288C109.794 24.9334 109.892 25.4919 110.088 25.9633C110.285 26.4348 110.568 26.7996 110.939 27.0578C111.309 27.3103 111.747 27.4366 112.252 27.4366Z" fill="white"/>
<path d="M120.915 29.0025C120.337 29.0025 119.818 28.8931 119.358 28.6742C118.903 28.4497 118.544 28.1326 118.28 27.7228C118.017 27.3131 117.885 26.8333 117.885 26.2832V26.2664C117.885 25.7164 118.017 25.2477 118.28 24.8604C118.55 24.4732 118.937 24.1701 119.442 23.9512C119.953 23.7267 120.57 23.592 121.294 23.5471L124.67 23.3451V24.6331L121.547 24.8352C120.918 24.8745 120.455 25.0092 120.158 25.2393C119.86 25.4638 119.712 25.7809 119.712 26.1906V26.2075C119.712 26.6228 119.871 26.9511 120.191 27.1925C120.511 27.4282 120.915 27.546 121.404 27.546C121.858 27.546 122.262 27.4562 122.616 27.2766C122.975 27.0914 123.256 26.8445 123.458 26.5358C123.66 26.2215 123.761 25.8679 123.761 25.475V22.5958C123.761 22.0906 123.604 21.7062 123.29 21.4424C122.981 21.173 122.521 21.0383 121.909 21.0383C121.398 21.0383 120.98 21.1281 120.654 21.3077C120.335 21.4873 120.121 21.7399 120.015 22.0654L119.998 22.0906H118.238L118.247 22.0317C118.32 21.5266 118.519 21.0888 118.844 20.7184C119.176 20.3423 119.608 20.0505 120.141 19.8428C120.68 19.6352 121.294 19.5313 121.985 19.5313C122.754 19.5313 123.405 19.6548 123.938 19.9018C124.477 20.1431 124.883 20.4939 125.159 20.9541C125.439 21.4087 125.579 21.9559 125.579 22.5958V28.851H123.761V27.5545H123.626C123.447 27.8632 123.222 28.1269 122.953 28.3458C122.683 28.5591 122.377 28.7219 122.035 28.8341C121.693 28.9464 121.32 29.0025 120.915 29.0025Z" fill="white"/>
<path d="M131.658 29.0278C130.771 29.0278 130.005 28.8369 129.36 28.4553C128.72 28.068 128.226 27.518 127.878 26.8052C127.53 26.0924 127.356 25.2421 127.356 24.2543V24.2374C127.356 23.2665 127.527 22.4302 127.87 21.7286C128.218 21.0271 128.712 20.4855 129.351 20.1038C129.997 19.7222 130.763 19.5313 131.65 19.5313C132.419 19.5313 133.078 19.666 133.628 19.9354C134.184 20.1992 134.624 20.564 134.95 21.0299C135.281 21.4901 135.489 22.0149 135.573 22.6042L135.581 22.6463H133.822L133.813 22.6295C133.712 22.1804 133.479 21.8072 133.115 21.5097C132.75 21.2067 132.264 21.0551 131.658 21.0551C131.153 21.0551 130.718 21.1842 130.353 21.4424C129.988 21.695 129.708 22.0598 129.511 22.5368C129.321 23.0139 129.225 23.5808 129.225 24.2374V24.2543C129.225 24.9278 129.323 25.5059 129.52 25.9886C129.716 26.4712 129.997 26.8445 130.362 27.1083C130.726 27.3664 131.159 27.4955 131.658 27.4955C132.231 27.4955 132.694 27.3693 133.047 27.1167C133.406 26.8641 133.659 26.4909 133.805 25.997L133.822 25.9549L135.573 25.9465L135.556 26.0222C135.449 26.6172 135.233 27.1391 134.908 27.5881C134.582 28.0371 134.147 28.3907 133.603 28.6489C133.064 28.9015 132.416 29.0278 131.658 29.0278Z" fill="white"/>
<path d="M137.383 28.851V16.1217H139.21V28.851H137.383ZM143.142 28.851L139.858 24.5658L141.214 23.4292L145.373 28.851H143.142ZM139.033 25.7107L138.958 23.5555H139.353L142.973 19.7081H145.12L140.995 23.8839L140.288 24.4648L139.033 25.7107Z" fill="white"/>
<path d="M148.656 25.0793L148.648 24.4058C148.637 24.0073 148.685 23.6537 148.791 23.3451C148.903 23.0364 149.083 22.7557 149.33 22.5032C149.577 22.245 149.891 22.0008 150.273 21.7707C150.61 21.5631 150.879 21.3666 151.081 21.1814C151.283 20.9906 151.426 20.7857 151.51 20.5668C151.6 20.348 151.645 20.0982 151.645 19.8176V19.8007C151.645 19.4808 151.567 19.1974 151.409 18.9504C151.258 18.7035 151.039 18.5098 150.753 18.3695C150.472 18.2236 150.141 18.1506 149.759 18.1506C149.372 18.1506 149.035 18.2236 148.749 18.3695C148.463 18.5155 148.236 18.7259 148.067 19.0009C147.899 19.2703 147.803 19.5874 147.781 19.9523L147.764 19.9607L146.021 19.9691V19.9523C146.049 19.3237 146.209 18.7568 146.501 18.2517C146.799 17.7409 147.228 17.3396 147.789 17.0478C148.351 16.7503 149.035 16.6016 149.844 16.6016C150.59 16.6016 151.241 16.7391 151.797 17.0141C152.358 17.2835 152.793 17.6539 153.102 18.1254C153.416 18.5912 153.573 19.1244 153.573 19.725V19.7418C153.573 20.174 153.503 20.5668 153.363 20.9204C153.222 21.2684 153.02 21.5827 152.756 21.8633C152.493 22.1384 152.173 22.3881 151.797 22.6126C151.437 22.8259 151.157 23.0279 150.955 23.2188C150.753 23.404 150.61 23.6032 150.525 23.8165C150.447 24.0242 150.408 24.2739 150.408 24.5658V25.0793H148.656ZM149.633 29.0362C149.246 29.0362 148.931 28.9211 148.69 28.691C148.449 28.4609 148.328 28.1578 148.328 27.7818C148.328 27.4001 148.449 27.0942 148.69 26.8641C148.931 26.6284 149.246 26.5105 149.633 26.5105C150.026 26.5105 150.34 26.6284 150.576 26.8641C150.812 27.0942 150.93 27.4001 150.93 27.7818C150.93 28.1578 150.812 28.4609 150.576 28.691C150.34 28.9211 150.026 29.0362 149.633 29.0362Z" fill="white"/>
</svg>
