<svg width="55" height="54" viewBox="0 0 55 54" fill="none" xmlns="http://www.w3.org/2000/svg">
<path fill-rule="evenodd" clip-rule="evenodd" d="M0.729441 14.4037C-2.46901 6.21045 5.37687 -2.49721 14.0234 0.664448L14.4355 0.823627L47.7392 14.4291C57.0568 18.2362 56.2232 31.8573 46.3642 34.3666L36.1455 36.9672L32.9726 46.2143C29.8041 55.4497 16.8712 55.7501 13.3095 46.6273L0.729441 14.4037ZM25.7519 43.7377C25.698 43.8947 25.6335 44.042 25.5605 44.1801C25.5969 44.1113 25.6322 44.0407 25.664 43.9672L25.7519 43.7377Z" fill="white"/>
<path d="M20.4203 43.8512L7.84052 11.6274C6.92057 9.27092 9.23017 6.94334 11.5486 7.89047L44.8516 21.4955C47.4069 22.5394 47.153 26.2885 44.481 26.9685L31.7534 30.2073C30.8237 30.4439 30.0741 31.1393 29.7591 32.0572L25.7521 43.7372C24.8858 46.2623 21.3908 46.337 20.4203 43.8512Z" fill="black"/>
</svg>
