<svg width="197" height="38" viewBox="0 0 197 38" fill="none" xmlns="http://www.w3.org/2000/svg">
<path d="M4.00269 3.47556C4.26575 1.48645 5.96173 0 7.96816 0H192.437C194.646 0 196.437 1.79086 196.437 4V34C196.437 36.2091 194.646 38 192.437 38H4.00066C1.58321 38 -0.281767 35.8721 0.0351813 33.4756L4.00269 3.47556Z" fill="white"/>
<path d="M154.074 5.04405C155.565 4.89597 157.037 5.1557 158.119 6.26182C160.024 8.20859 159.714 11.2641 159.69 13.7755L156.019 13.7823C156.028 12.714 156.512 8.77505 154.787 8.85069C154.557 8.8609 154.045 9.1684 153.957 9.3712C152.274 13.2669 156.664 17.6094 158.084 21.0538C158.844 22.6735 159.653 24.3618 159.823 26.1769C160.194 30.1677 158.905 32.9656 154.769 33.4952C149.019 33.2129 149.254 29.3184 149.278 24.8048L152.975 24.8028C152.985 25.9106 152.866 27.0708 152.993 28.17C153.053 28.6763 153.209 29.2414 153.633 29.5655C153.859 29.7382 154.128 29.7994 154.407 29.7569C154.836 29.6917 155.2 29.4333 155.449 29.0851C157.196 26.6397 152.52 19.9794 151.313 17.628C150.491 16.0248 149.749 14.364 149.458 12.5724C149.16 10.7382 149.411 8.56976 150.528 7.03135C151.404 5.82494 152.635 5.26973 154.074 5.04405Z" fill="black"/>
<path d="M172.336 5.04698C179.066 4.45891 178.314 11.0731 178.289 15.5226L174.333 15.5333C174.316 13.8301 174.458 11.8465 174.284 10.1651C174.141 8.79398 172.036 8.66216 172.041 10.4845C172.056 16.5153 171.965 22.564 172.075 28.5929C172.061 30.0205 174.295 29.8117 174.348 28.7394C174.438 26.9131 174.386 24.5918 174.377 22.7814L173.31 22.7833V19.4698L174.762 19.4532L178.5 19.4679L178.49 33.0577C177.737 33.0852 176.796 33.0603 176.029 33.0587L175.574 31.5997C173.706 35.0356 168.633 33.3767 168.016 29.8946C167.698 28.1031 167.776 26.5547 167.775 24.7472L167.772 18.3712L167.775 13.1114C167.779 9.28841 167.744 6.00783 172.336 5.04698Z" fill="black"/>
<path d="M28.4329 5.40928C28.3488 6.28307 28.4106 8.47059 28.4095 9.44151L28.4134 22.3937C28.4133 23.2794 28.4363 24.1814 28.4124 25.0655C28.3443 27.589 28.8214 30.0307 26.8724 31.9952C25.9089 32.9521 24.6028 33.4857 23.2444 33.4776C21.8415 33.4859 20.492 32.9383 19.4915 31.9552C18.1158 30.5827 17.9213 29.0953 17.9319 27.2433C17.9424 25.4017 17.935 23.5505 17.9358 21.7081L17.93 5.41319L22.1663 5.41124L22.1605 20.506C22.1587 23.0478 22.1265 25.6733 22.1995 28.2159C22.2068 28.4686 22.2747 28.797 22.4573 28.9874C22.6704 29.2081 22.964 29.3334 23.2708 29.3351C23.5387 29.337 23.7835 29.2587 23.9749 29.0665C24.1539 28.8846 24.2652 28.6466 24.2913 28.3927C24.3445 27.8937 24.3096 26.5692 24.3099 26.003L24.3118 21.128L24.2991 5.41026L28.4329 5.40928Z" fill="black"/>
<path fill-rule="evenodd" clip-rule="evenodd" d="M45.6058 5.03721C46.945 4.89136 48.2436 5.17216 49.3792 5.91612C52.0534 7.66835 51.718 10.7058 51.721 13.5314L51.7239 19.3048L51.721 25.0294C51.7169 28.7675 51.8869 32.4921 47.2523 33.3946C45.8688 33.6305 44.4476 33.3304 43.2776 32.5558C42.1547 31.8136 41.3774 30.6518 41.1204 29.3312C40.8527 27.9457 40.9281 26.0027 40.9271 24.5323L40.928 13.088C40.926 9.22987 40.9892 5.91526 45.6058 5.03721ZM47.3899 11.1222C47.3971 9.75481 47.3748 8.99277 45.7884 9.20518C45.6523 9.35151 45.3289 9.68566 45.3255 9.88194C45.2243 15.88 45.2819 21.8922 45.2942 27.8927C45.296 28.7232 45.4491 29.3676 46.4368 29.3224C46.5689 29.3152 46.7005 29.3022 46.8314 29.2833C46.9707 29.1397 47.317 28.7937 47.3226 28.5919C47.4763 22.7794 47.3595 16.9399 47.3899 11.1222Z" fill="black"/>
<path d="M114.247 5.04503C120.811 4.4073 120.008 10.9212 119.978 15.3009H116.358C116.338 13.834 117.012 9.21499 115.14 9.13975C114.199 9.10201 113.887 9.79279 113.887 10.6202C113.889 16.5073 113.82 22.4028 113.93 28.2872C113.815 29.2832 115.446 29.6773 115.911 29.0196C116.666 27.9537 116.358 24.4736 116.371 23.1944L119.985 23.1935C119.991 26.7462 120.843 32.3521 116.272 33.338C114.802 33.6579 113.265 33.3852 111.995 32.5792C109.153 30.7435 109.568 27.6926 109.565 24.7452L109.562 18.7345L109.565 13.294C109.57 9.32413 109.505 6.04524 114.247 5.04503Z" fill="black"/>
<path d="M191.532 5.41221C191.533 7.65422 191.706 32.3984 191.454 33.0372L191.247 33.1017C190.253 33.0389 189.035 33.0529 188.041 33.0812C186.725 27.7777 185.403 21.9987 183.945 16.7608L183.929 33.0675L180.333 33.0577L180.329 5.41319L184.364 5.41417L187.951 21.712L187.953 5.41319L191.532 5.41221Z" fill="black"/>
<path d="M102.099 5.41124L102.093 9.58506L98.9935 9.59092L98.9847 30.1485C98.9905 31.1192 98.9836 32.0902 98.9642 33.0606C97.5643 33.0557 96.1153 33.0316 94.721 33.0851L94.7181 9.58702L91.6097 9.58311L91.6116 5.41026L102.099 5.41124Z" fill="black"/>
<path fill-rule="evenodd" clip-rule="evenodd" d="M77.9808 5.41514C78.4489 8.46702 78.79 12.0375 79.1575 15.1378L81.2786 33.0528C79.8368 33.0414 78.3948 33.0514 76.9534 33.0831L76.7474 29.4308L76.72 28.3224L74.1233 28.3351C74.0615 29.7274 73.8629 31.6879 73.7093 33.0812C72.4197 33.0631 71.155 33.0409 69.8646 33.0792C70.0599 31.8695 70.1991 30.5903 70.3314 29.3673C71.1937 21.3872 72.3466 13.3955 73.1526 5.41319L77.9808 5.41514ZM75.5999 13.0597C75.4788 14.1901 74.5132 23.9973 74.6175 24.2989C75.0097 24.3821 75.179 24.3755 75.5823 24.3673C75.7947 24.3681 76.185 24.3991 76.3401 24.2872C76.2748 21.7786 75.9849 19.1063 75.8636 16.5851C75.8456 16.2118 75.661 13.298 75.5999 13.0597Z" fill="black"/>
<path d="M165.828 24.9786L165.85 30.1241C165.854 30.8357 165.89 32.4307 165.793 33.0675C164.425 33.1062 162.999 33.039 161.584 33.0792L161.585 5.41807L165.832 5.41514L165.828 24.9786Z" fill="black"/>
<path d="M124.71 28.2296C124.72 29.846 124.718 31.4629 124.705 33.0792C123.672 33.037 122.52 33.0643 121.477 33.0694L121.471 28.2345C122.515 28.2072 123.659 28.2301 124.71 28.2296Z" fill="black"/>
<path fill-rule="evenodd" clip-rule="evenodd" d="M126.639 5.41319C132.921 5.39663 137.758 4.34362 137.315 12.4327C137.299 12.7186 137.316 13.0914 137.316 13.3858L137.315 25.339C137.317 27.7621 137.611 29.594 136.066 31.6183L136.039 31.6456C134.41 33.2952 132.168 33.0757 130.038 33.0655L126.64 33.0665L126.639 5.41319ZM132.409 9.48643C131.985 9.31873 131.372 9.38833 130.916 9.39854L130.915 29.1271C131.587 29.1317 132.212 29.2124 132.773 28.836C132.92 28.506 133.002 28.2054 133.027 27.8448C133.155 25.9579 133.204 10.7588 132.886 9.93077C132.805 9.7218 132.612 9.56723 132.409 9.48643Z" fill="black"/>
<path fill-rule="evenodd" clip-rule="evenodd" d="M68.8235 23.4552C68.8238 26.611 68.8725 29.915 68.8128 33.0606C67.5255 33.0607 66.0212 33.0236 64.7513 33.0753L64.7347 20.88C64.5095 20.3789 64.6542 15.2728 64.636 14.3478L64.5003 14.2872C64.1446 18.4177 63.6528 22.6026 63.1194 26.7159C62.895 28.4471 62.6445 31.4548 62.3148 33.0753C61.3971 33.0706 60.4473 33.0538 59.5325 33.0636C59.0857 28.2383 58.475 23.3821 57.9935 18.5538C57.8163 16.7781 57.7631 14.6626 57.5521 12.9562L57.5267 12.9454C57.3887 14.0546 57.4525 31.2267 57.4515 33.0773C56.3405 33.071 54.8292 33.0162 53.7503 33.0694L53.7347 5.41221L59.2884 5.41319C59.8164 8.5265 60.121 11.6967 60.6048 14.8146C61.0033 17.3826 61.0435 20.0213 61.4134 22.5694C61.6175 20.2921 61.7828 17.9815 62.0286 15.713C62.3985 12.3001 62.963 8.81537 63.3255 5.41124H68.8216L68.8235 23.4552ZM57.5296 12.8683L57.5394 12.8595L57.4896 12.756L57.5296 12.8683Z" fill="black"/>
<path d="M91.2454 5.41221L91.2347 9.58604L88.1253 9.58995L88.1224 30.3233L88.1185 33.0694C86.7017 33.0515 85.2843 33.0538 83.8675 33.0763C83.7749 25.3147 83.8641 17.3592 83.8616 9.58409L80.7542 9.58311L80.7601 5.41124L91.2454 5.41221Z" fill="black"/>
<path d="M139.283 5.41319C142.242 5.38098 145.259 5.41177 148.223 5.41124V9.38975L143.546 9.40049L143.552 16.962C144.561 16.9406 145.631 16.9569 146.645 16.9552L146.633 20.7296L143.546 20.755L143.55 28.961L148.226 28.9571L148.221 33.0753C145.371 32.9986 142.145 33.0481 139.288 33.0694L139.283 5.41319Z" fill="black"/>
<path fill-rule="evenodd" clip-rule="evenodd" d="M13.5589 5.41124C13.7057 7.89647 14.3251 12.0018 14.6282 14.5528L16.8304 33.0724C15.4432 33.0308 13.9007 33.0617 12.5013 33.0597C12.4244 31.8391 12.3601 30.6175 12.3099 29.3956L12.2239 28.3224L9.70147 28.3399C9.51401 29.6262 9.36991 31.7423 9.2796 33.0597L5.43682 33.0636L7.49737 15.6515C7.89553 12.2904 8.26153 8.75167 8.72882 5.41124H13.5589ZM11.0892 13.2403C10.9083 15.924 10.6033 18.6204 10.3792 21.3019C10.3425 21.7397 10.101 24.0117 10.1419 24.3302C10.5229 24.3649 10.7978 24.3717 11.181 24.3692C11.3842 24.3659 11.743 24.3915 11.8919 24.3038C11.8306 23.276 11.2951 13.5656 11.0892 13.2403Z" fill="black"/>
<path d="M107.611 5.41612C107.627 6.72506 107.628 8.04511 107.619 9.3546C107.564 17.2499 107.703 25.1676 107.602 33.0606H103.37L103.366 5.41612H107.611Z" fill="black"/>
<path d="M40.0638 9.58604L36.9573 9.58897L36.9554 30.3185L36.9476 33.0558L32.7044 33.0587C32.7722 25.2617 32.5948 17.3669 32.7122 9.58799L29.6126 9.58506L29.6185 5.41221H40.0687L40.0638 9.58604Z" fill="black"/>
</svg>
