<svg width="76" height="76" viewBox="0 0 76 76" fill="none" xmlns="http://www.w3.org/2000/svg">
<circle cx="38" cy="38" r="38" fill="white"/>
<circle cx="38" cy="38" r="16" transform="rotate(-45 38 38)" stroke="black" stroke-width="3.5"/>
<ellipse cx="38" cy="38" rx="6.75556" ry="16" transform="rotate(-45 38 38)" stroke="black" stroke-width="3.5"/>
<path d="M26.4349 49.0623L48.5595 26.9377" stroke="black" stroke-width="3.5"/>
<path d="M40.8661 67.8883L36.656 68L33.2359 60.3658L36.6992 60.2739L37.1167 61.3108L40.4826 61.2215L40.8551 60.1636L43.8963 60.083L40.8661 67.8883ZM39.7981 63.1736L37.8933 63.2242L38.9023 65.7256L39.7981 63.1736Z" fill="black"/>
<path d="M29.127 58.3738L29.1326 58.3881C29.7678 58.6642 30.3119 58.9596 30.7748 59.2787C31.2378 59.5977 31.604 59.9219 31.8735 60.2511C32.143 60.5803 32.3115 60.9246 32.3734 61.2696C32.4353 61.6145 32.3905 61.9603 32.2435 62.2969C32.0748 62.6831 31.7987 62.9636 31.4109 63.1485C31.0231 63.3333 30.5167 63.3842 29.8861 63.2868C30.2126 63.5936 30.4282 63.9112 30.5328 64.2394C30.6375 64.5677 30.6026 64.9177 30.4426 65.2841C30.2999 65.6108 30.0752 65.8548 29.7785 66.0204C29.4818 66.1859 29.123 66.2773 28.712 66.299C28.301 66.3206 27.8577 66.281 27.3722 66.176C26.8866 66.0709 26.3929 65.9034 25.8867 65.6834C25.3607 65.4547 24.8917 65.2037 24.484 64.9204C24.0763 64.6372 23.7454 64.3402 23.4914 64.0295C23.2374 63.7188 23.0702 63.3987 22.9897 63.0692C22.9093 62.7397 22.9454 62.4137 23.0881 62.087C23.2481 61.7206 23.4914 61.4612 23.8179 61.3086C24.1443 61.1559 24.5243 61.0973 24.9676 61.1368C24.4766 60.7467 24.1649 60.352 24.0422 59.957C23.9195 59.562 23.9332 59.1791 24.0975 58.8029C24.2446 58.4663 24.468 58.1982 24.7776 58.0029C25.0873 57.8077 25.4548 57.6964 25.8843 57.6593C26.3139 57.6222 26.8055 57.6592 27.355 57.7803C27.9044 57.9013 28.4918 58.0977 29.127 58.3738ZM27.1652 62.8108L27.1552 62.8065C26.8376 62.6684 26.5636 62.62 26.3373 62.6512C26.1111 62.6825 25.9569 62.7921 25.8747 62.9803C25.7926 63.1684 25.817 63.3557 25.9481 63.5423C26.0792 63.7289 26.3013 63.8962 26.6189 64.0342C26.9266 64.168 27.1908 64.2121 27.417 64.1809C27.6432 64.1496 27.7974 64.0399 27.8796 63.8518C27.9618 63.6637 27.9373 63.4763 27.8063 63.2898C27.6752 63.1032 27.4629 62.9402 27.1652 62.8108ZM28.3515 60.122L28.3856 60.1251C28.0085 59.9611 27.6947 59.8954 27.4499 59.9421C27.2051 59.9889 27.0366 60.1041 26.9544 60.2923C26.8636 60.5002 26.8794 60.7073 27.0018 60.9137C27.1243 61.1201 27.3719 61.3102 27.759 61.4785C28.1262 61.6381 28.4301 61.6995 28.6805 61.667C28.9309 61.6345 29.0993 61.5192 29.1901 61.3113C29.281 61.1034 29.2552 60.8919 29.1229 60.6812C28.9905 60.4705 28.7287 60.286 28.3515 60.122Z" fill="black"/>
<path d="M21.1686 52.3082L21.2279 52.3424C21.838 53.0296 22.2962 53.6924 22.6026 54.3306C22.9089 54.9689 23.0795 55.5683 23.1217 56.1371C23.1638 56.7058 23.0702 57.2357 22.8491 57.7196C22.6279 58.2036 22.2944 58.6425 21.8487 59.0363L21.7838 59.0936C21.33 59.4946 20.8233 59.7547 20.2791 59.8748C19.735 59.9949 19.1829 59.9921 18.6077 59.8655C18.0325 59.7389 17.4647 59.4903 16.8963 59.1269C16.3278 58.7635 15.7883 58.3024 15.2858 57.7365C14.8192 57.2109 14.4444 56.6909 14.1531 56.1836C13.8618 55.6764 13.6775 55.1755 13.5921 54.6884C13.5066 54.2012 13.5272 53.7357 13.6549 53.2767C13.7825 52.8177 14.0314 52.3814 14.4017 51.9677L16.6413 54.4903C16.4349 54.7303 16.3571 55.001 16.3925 55.3015C16.428 55.6021 16.6 55.9262 16.9086 56.2738C17.2963 56.7104 17.7031 56.9569 18.1445 57.0142C18.5858 57.0715 19.0177 56.9064 19.4553 56.5197L19.5202 56.4624C19.9497 56.0829 20.1663 55.6752 20.1707 55.224C20.1751 54.7729 19.9656 54.3088 19.542 53.8318C19.2334 53.4841 18.9182 53.2432 18.6038 53.117C18.2893 52.9909 17.9809 53.0182 17.6856 53.2069L15.5322 50.7813C15.95 50.4699 16.3909 50.2824 16.863 50.2115C17.3352 50.1406 17.8161 50.1773 18.3059 50.3217C18.7956 50.4661 19.2798 50.702 19.7656 51.0374C20.2514 51.3728 20.7164 51.7988 21.1686 52.3082Z" fill="black"/>
<path d="M15.4796 46.9435L15.4976 46.9597C15.6089 47.2409 15.672 47.518 15.6868 47.7908C15.7017 48.0636 15.6603 48.3122 15.5769 48.5424C15.4934 48.7727 15.3779 48.9807 15.2162 49.1605C15.0546 49.3403 14.863 49.4738 14.6313 49.565C14.3997 49.6562 14.1684 49.6893 13.9272 49.6682C13.6861 49.647 13.4592 49.5738 13.2406 49.4625C13.0219 49.3512 12.8176 49.1878 12.6316 48.9824C12.4455 48.777 12.3019 48.5317 12.1906 48.2504C12.0792 47.9691 12.0162 47.6921 12.0114 47.4153C12.0066 47.1385 12.044 46.8799 12.1274 46.6497C12.2109 46.4194 12.3264 46.2113 12.4881 46.0316C12.6497 45.8518 12.8413 45.7183 13.073 45.6271C13.3046 45.5358 13.5359 45.5028 13.7771 45.5239C14.0182 45.5451 14.2411 45.6082 14.4598 45.7195C14.6784 45.8308 14.8726 45.9982 15.0486 46.2075C15.2246 46.4169 15.3682 46.6622 15.4796 46.9435Z" fill="black"/>
<path d="M8.18509 43.6764L8.01159 39.3597C7.94002 37.5791 8.19995 36.2284 8.79095 35.2968C9.38195 34.3652 10.3049 33.8743 11.5706 33.8237L11.6463 33.8206C12.9228 33.7696 13.9038 34.1843 14.6006 35.0752C15.2973 35.9661 15.6752 37.2805 15.7455 39.0288L15.9199 43.367L8.18509 43.6764ZM13.63 39.2323C13.6 38.4877 13.4485 37.9533 13.1759 37.6399C12.9033 37.3265 12.4532 37.1824 11.8366 37.2071L11.7501 37.2105C11.4147 37.2239 11.1352 37.2784 10.9223 37.3733C10.7094 37.4683 10.5415 37.6048 10.4186 37.7826C10.2958 37.9605 10.2179 38.1798 10.1747 38.4517C10.1314 38.7237 10.1223 39.0375 10.1371 39.4044L10.1748 40.3433L13.669 40.2035L13.63 39.2323Z" fill="black"/>
<path d="M17.5312 29.2919L17.5328 29.316C16.9597 30.6807 16.3308 31.6474 15.6318 32.2219C14.9328 32.7963 14.1547 32.9161 13.2934 32.5913L14.519 29.6725C14.613 29.7001 14.7055 29.7036 14.8063 29.6872C14.9071 29.6708 15.0105 29.6203 15.1164 29.5357C15.2223 29.4512 15.3208 29.3284 15.4219 29.1716C15.5229 29.0148 15.6308 28.8139 15.7353 28.5649C15.8901 28.1963 15.9631 27.9106 15.9585 27.698C15.9539 27.4853 15.8817 27.3497 15.7519 27.2955C15.6021 27.2329 15.4504 27.2866 15.2927 27.4666C15.1349 27.6466 14.9244 27.9801 14.667 28.4815C14.3201 29.1679 13.9934 29.7222 13.6828 30.1545C13.3721 30.5867 13.0634 30.9027 12.7624 31.1165C12.4613 31.3302 12.1438 31.4435 11.8198 31.4603C11.4958 31.4771 11.1511 31.4034 10.7717 31.2448C10.4322 31.1029 10.1503 30.8798 9.93597 30.5794C9.72167 30.2791 9.58078 29.9158 9.50911 29.4994C9.43745 29.0831 9.44917 28.6079 9.53012 28.0796C9.61107 27.5514 9.78122 26.9785 10.0364 26.3708C10.5467 25.1555 11.1196 24.2942 11.7652 23.7911C12.4107 23.288 13.1589 23.1557 14.0054 23.404L12.8216 26.2232C12.6393 26.1821 12.4635 26.2375 12.2941 26.3892C12.1248 26.5409 11.9661 26.779 11.8322 27.0978C11.6984 27.4166 11.6379 27.6724 11.6409 27.861C11.6439 28.0496 11.7103 28.171 11.8301 28.2211C11.9 28.2503 11.9683 28.2554 12.0349 28.2364C12.1016 28.2174 12.1708 28.1644 12.2526 28.0814C12.3344 27.9985 12.4229 27.8716 12.5239 27.7147C12.625 27.5579 12.737 27.3471 12.8699 27.0865C13.165 26.4955 13.4508 25.9826 13.7415 25.542C14.0321 25.1014 14.3293 24.7572 14.6329 24.5094C14.9365 24.2615 15.2607 24.1043 15.6015 24.0476C15.9422 23.9909 16.3194 24.0431 16.7288 24.2142C17.0983 24.3686 17.4001 24.6001 17.6386 24.8988C17.877 25.1975 18.0279 25.565 18.1054 25.9955C18.1829 26.426 18.1769 26.9154 18.0834 27.4735C17.9899 28.0316 17.8072 28.6344 17.5312 29.2919Z" fill="black"/>
<path d="M14.4869 18.8526L17.2547 16.3667L22.0285 17.2819L19.4352 14.4084L21.4789 12.5729L26.6583 18.3119L24.2928 20.4365L18.7271 19.4187L21.7261 22.7417L19.6663 24.5916L14.4869 18.8526Z" fill="black"/>
<path d="M28.8934 15.5864L28.8773 15.6045C28.596 15.7172 28.3186 15.7817 28.0452 15.7981C27.7718 15.8145 27.5225 15.7747 27.2912 15.6927C27.0599 15.6108 26.8506 15.4968 26.6695 15.3365C26.4884 15.1763 26.3534 14.986 26.2606 14.7554C26.1679 14.5249 26.1334 14.2943 26.1532 14.0536C26.173 13.8129 26.2451 13.5862 26.3554 13.3675C26.4657 13.1487 26.6282 12.9439 26.8331 12.7572C27.0379 12.5704 27.283 12.4257 27.5643 12.313C27.8456 12.2003 28.123 12.1358 28.4004 12.1294C28.6778 12.1231 28.9372 12.1588 29.1685 12.2408C29.3999 12.3227 29.6091 12.4368 29.7902 12.597C29.9714 12.7572 30.1063 12.9475 30.1991 13.1781C30.2919 13.4086 30.3263 13.6392 30.3065 13.8799C30.2867 14.1206 30.2247 14.3433 30.1144 14.562C30.0041 14.7808 29.8375 14.9755 29.6286 15.1523C29.4198 15.329 29.1747 15.4737 28.8934 15.5864Z" fill="black"/>
<path d="M34.6663 8.18225L38.8739 8L42.4222 15.5758L38.9609 15.7257L38.526 14.696L35.1621 14.8417L34.8074 15.9057L31.768 16.0373L34.6663 8.18225ZM35.8135 12.8784L37.7172 12.7959L36.6663 10.3118L35.8135 12.8784Z" fill="black"/>
<path d="M46.5615 17.4931L46.5556 17.479C45.9155 17.2144 45.3661 16.9289 44.8974 16.6182C44.4288 16.3076 44.0567 15.9902 43.7812 15.6659C43.5057 15.3416 43.331 15.0005 43.2629 14.6567C43.1947 14.3128 43.2332 13.9663 43.3741 13.6271C43.5357 13.2379 43.8066 12.9524 44.191 12.7606C44.5754 12.5688 45.0808 12.5088 45.713 12.5947C45.381 12.2938 45.1597 11.9802 45.0491 11.6539C44.9385 11.3277 44.9669 10.977 45.1203 10.6078C45.257 10.2786 45.4772 10.0305 45.7709 9.85965C46.0645 9.68875 46.4216 9.59084 46.8321 9.56178C47.2426 9.53272 47.6866 9.56424 48.174 9.66047C48.6614 9.75671 49.158 9.91524 49.6682 10.1261C50.1983 10.3452 50.6718 10.5877 51.0846 10.8635C51.4974 11.1393 51.8336 11.4303 52.0932 11.7363C52.3528 12.0424 52.5258 12.3594 52.6123 12.6874C52.6987 13.0154 52.6685 13.3419 52.5318 13.6712C52.3784 14.0404 52.1399 14.3042 51.8163 14.4627C51.4927 14.6212 51.1139 14.6868 50.6699 14.6553C51.1678 15.0364 51.4868 15.4254 51.6166 15.8181C51.7465 16.2109 51.7398 16.5939 51.5823 16.973C51.4414 17.3123 51.2229 17.5844 50.9168 17.7852C50.6107 17.986 50.2454 18.1039 49.8166 18.1488C49.3878 18.1937 48.8955 18.1656 48.344 18.0545C47.7924 17.9434 47.2016 17.7577 46.5615 17.4931ZM48.4422 13.0213L48.4522 13.0255C48.7723 13.1578 49.0472 13.2013 49.2728 13.1659C49.4984 13.1306 49.6506 13.0181 49.7293 12.8285C49.8081 12.639 49.7802 12.4521 49.6458 12.2679C49.5113 12.0837 49.2861 11.9205 48.9661 11.7882C48.656 11.6601 48.3911 11.6207 48.1655 11.6561C47.9399 11.6914 47.7877 11.8039 47.7089 11.9934C47.6302 12.183 47.658 12.3699 47.7925 12.5541C47.9269 12.7382 48.1421 12.8973 48.4422 13.0213ZM47.305 15.7312L47.2708 15.7287C47.6509 15.8858 47.9658 15.9459 48.2097 15.8947C48.4536 15.8435 48.62 15.7252 48.6987 15.5357C48.7857 15.3261 48.7662 15.1193 48.64 14.9152C48.5139 14.711 48.2628 14.5254 47.8727 14.3642C47.5027 14.2112 47.1977 14.1554 46.948 14.1924C46.6982 14.2295 46.5319 14.3478 46.4448 14.5573C46.3578 14.7668 46.3874 14.9778 46.5235 15.1861C46.6597 15.3943 46.9249 15.5741 47.305 15.7312Z" fill="black"/>
<path d="M54.6129 23.428L54.5532 23.3947C53.9332 22.7162 53.4655 22.0601 53.15 21.4263C52.8345 20.7925 52.6552 20.1956 52.6049 19.6275C52.5546 19.0594 52.6406 18.5282 52.8547 18.0412C53.0689 17.5541 53.396 17.1105 53.8361 16.7103L53.9001 16.6521C54.3481 16.2447 54.851 15.9773 55.3934 15.8495C55.9358 15.7216 56.4878 15.7165 57.0648 15.8348C57.6417 15.9532 58.213 16.1936 58.7866 16.5488C59.3603 16.904 59.9064 17.3573 60.417 17.916C60.891 18.4348 61.2734 18.9494 61.5719 19.4525C61.8705 19.9555 62.062 20.4536 62.1544 20.9396C62.2468 21.4255 62.2329 21.8912 62.1119 22.3519C61.9909 22.8127 61.7483 23.2526 61.384 23.6716L59.1084 21.1813C59.3112 20.9384 59.3851 20.6665 59.3454 20.3666C59.3057 20.0666 59.129 19.745 58.8153 19.4018C58.4215 18.9707 58.0111 18.7301 57.569 18.6791C57.1269 18.6282 56.6974 18.7995 56.2654 19.1924L56.2014 19.2506C55.7773 19.6362 55.5667 20.047 55.5688 20.4981C55.5708 20.9493 55.787 21.4103 56.2174 21.8813C56.531 22.2245 56.8496 22.4609 57.1658 22.5825C57.4821 22.7041 57.7901 22.6724 58.0826 22.4795L60.2707 24.874C59.8575 25.1913 59.4193 25.3852 58.9482 25.4628C58.4771 25.5405 57.9957 25.5106 57.5039 25.3733C57.0122 25.2359 56.5246 25.007 56.0341 24.6786C55.5435 24.3501 55.0724 23.9309 54.6129 23.428Z" fill="black"/>
<path d="M60.3865 28.7052L60.3682 28.6894C60.2519 28.4101 60.1839 28.1342 60.1642 27.8617C60.1446 27.5891 60.1815 27.3399 60.2609 27.1082C60.3402 26.8765 60.4521 26.6665 60.6105 26.4839C60.769 26.3013 60.9582 26.1644 61.1881 26.0691C61.4181 25.9738 61.6488 25.9367 61.8903 25.9536C62.1318 25.9705 62.3599 26.0397 62.5805 26.1471C62.8011 26.2545 63.0083 26.4143 63.1979 26.6164C63.3876 26.8185 63.5355 27.0612 63.6518 27.3405C63.7681 27.6198 63.8361 27.8957 63.8458 28.1724C63.8554 28.449 63.8227 28.7082 63.7433 28.9399C63.6639 29.1716 63.5521 29.3817 63.3936 29.5643C63.2352 29.7469 63.046 29.8837 62.816 29.979C62.5861 30.0743 62.3553 30.1114 62.1138 30.0945C61.8723 30.0776 61.6484 30.0184 61.4278 29.911C61.2072 29.8036 61.01 29.6397 60.8304 29.4334C60.6507 29.2272 60.5028 28.9844 60.3865 28.7052Z" fill="black"/>
<path d="M67.7373 31.8599L67.9781 36.1733C68.0775 37.9526 67.8386 39.3072 67.2622 40.2479C66.6859 41.1885 65.7707 41.6937 64.5059 41.764L64.4303 41.7682C63.1547 41.839 62.1674 41.4396 61.4568 40.5596C60.7462 39.6797 60.3478 38.3713 60.2503 36.6243L60.0083 32.2893L67.7373 31.8599ZM62.3624 36.388C62.4039 37.1321 62.5638 37.664 62.8413 37.9731C63.1188 38.2822 63.571 38.4194 64.1872 38.3851L64.2736 38.3803C64.6087 38.3617 64.8874 38.3029 65.0988 38.2047C65.3101 38.1064 65.4759 37.9674 65.596 37.7876C65.716 37.6079 65.7905 37.3874 65.8295 37.1148C65.8685 36.8422 65.8726 36.5283 65.8522 36.1616L65.7998 35.2235L62.3082 35.4175L62.3624 36.388Z" fill="black"/>
<path d="M58.6164 46.3904L58.6144 46.3664C59.1663 44.9929 59.7802 44.0167 60.4702 43.4315C61.1602 42.8464 61.9363 42.7146 62.8026 43.0261L61.6223 45.9634C61.5279 45.9373 61.4354 45.9352 61.3348 45.9532C61.2343 45.9711 61.1317 46.0232 61.0271 46.1094C60.9225 46.1955 60.8259 46.3198 60.7273 46.4782C60.6287 46.6366 60.524 46.839 60.4233 47.0897C60.2743 47.4606 60.2057 47.7473 60.2136 47.9599C60.2215 48.1725 60.2957 48.307 60.4264 48.3592C60.5771 48.4195 60.728 48.3634 60.8829 48.181C61.0378 47.9986 61.2431 47.6619 61.4928 47.1566C61.829 46.465 62.1471 45.9056 62.451 45.4686C62.7549 45.0316 63.0587 44.711 63.3564 44.4926C63.6541 44.2742 63.9698 44.1561 64.2935 44.1343C64.6172 44.1124 64.963 44.1809 65.3449 44.3336C65.6865 44.4702 65.9719 44.689 66.1908 44.986C66.4097 45.283 66.5562 45.6441 66.6343 46.0593C66.7124 46.4745 66.708 46.9498 66.6353 47.4792C66.5625 48.0087 66.4013 48.5841 66.1555 49.1957C65.6641 50.4187 65.1046 51.2887 64.4669 51.8017C63.8292 52.3146 63.0832 52.4585 62.233 52.2232L63.3729 49.3862C63.5559 49.4244 63.7308 49.3664 63.8978 49.2121C64.0648 49.0578 64.2198 48.8172 64.3487 48.4964C64.4776 48.1756 64.534 47.9189 64.5281 47.7304C64.5223 47.5419 64.454 47.4215 64.3334 47.3733C64.2631 47.3452 64.1947 47.3411 64.1283 47.3611C64.062 47.3811 63.9936 47.4352 63.9131 47.5194C63.8326 47.6036 63.7461 47.7319 63.6475 47.8902C63.5488 48.0486 63.4401 48.2611 63.3113 48.5237C63.0253 49.1192 62.7475 49.6364 62.4637 50.0815C62.1799 50.5265 61.8882 50.8752 61.5884 51.1277C61.2887 51.3802 60.9669 51.5424 60.6271 51.6044C60.2873 51.6663 59.9093 51.6199 59.4973 51.4551C59.1255 51.3064 58.8201 51.0796 58.577 50.7846C58.334 50.4896 58.1774 50.1245 58.0933 49.6952C58.0092 49.266 58.0075 48.7766 58.0924 48.2171C58.1772 47.6576 58.3506 47.0521 58.6164 46.3904Z" fill="black"/>
<path d="M61.8182 56.7857L59.0879 59.3126L54.3009 58.4687L56.937 61.3032L54.921 63.169L49.6562 57.5078L51.9897 55.3482L57.57 56.2829L54.5215 53.005L56.5534 51.1245L61.8182 56.7857Z" fill="black"/>
<path d="M47.4689 60.2699L47.4846 60.2516C47.7639 60.134 48.0401 60.0647 48.3132 60.0435C48.5863 60.0224 48.8363 60.0579 49.069 60.1358C49.3017 60.2137 49.5129 60.3241 49.6968 60.4811C49.8807 60.6381 50.0189 60.8261 50.1157 61.055C50.2125 61.2839 50.251 61.5138 50.2354 61.7548C50.2198 61.9958 50.1517 62.2238 50.0452 62.4444C49.9388 62.665 49.7798 62.8726 49.5783 63.0629C49.3767 63.2532 49.1342 63.4022 48.8549 63.5197C48.5756 63.6373 48.2994 63.7066 48.0221 63.7178C47.7448 63.729 47.4849 63.6977 47.2522 63.6198C47.0195 63.5419 46.8083 63.4315 46.6243 63.2745C46.4404 63.1174 46.3022 62.9295 46.2054 62.7006C46.1086 62.4717 46.0701 62.2417 46.0857 62.0007C46.1013 61.7597 46.1594 61.536 46.2659 61.3154C46.3724 61.0947 46.5356 60.8971 46.7413 60.7168C46.947 60.5364 47.1896 60.3874 47.4689 60.2699Z" fill="black"/>
</svg>
